<svg width="20" height="20" viewBox="0 0 20 20" fill="none" xmlns="http://www.w3.org/2000/svg">
<path d="M3.33203 6H16.6654V8.66667L16.1994 8.94667C15.8367 9.16425 15.4218 9.27919 14.9989 9.27919C14.576 9.27919 14.161 9.16425 13.7984 8.94667L13.332 8.66667L12.866 8.94667C12.5034 9.16425 12.0884 9.27919 11.6655 9.27919C11.2426 9.27919 10.8277 9.16425 10.465 8.94667L9.9987 8.66667L9.5327 8.94667C9.17002 9.16432 8.755 9.27929 8.33203 9.27929C7.90906 9.27929 7.49404 9.16432 7.13136 8.94667L6.66536 8.66667L6.19903 8.94667C5.83643 9.16419 5.42154 9.27909 4.9987 9.27909C4.57586 9.27909 4.16096 9.16419 3.79836 8.94667L3.33203 8.66667V6Z" stroke="#7A52D3" stroke-width="1.33333" stroke-linecap="round" stroke-linejoin="round"/>
<path d="M4.66406 9.49601V16.6663H15.3307V9.33301M4.66406 5.94034V3.33301H15.3307V5.99967" stroke="#7A52D3" stroke-width="1.33333" stroke-linecap="round" stroke-linejoin="round"/>
<path d="M8.33203 12.666H11.6654V16.666H8.33203V12.666Z" stroke="#7A52D3" stroke-width="1.33333" stroke-linecap="round" stroke-linejoin="round"/>
</svg>
