<svg width="24" height="24" viewBox="0 0 24 24" fill="none" xmlns="http://www.w3.org/2000/svg">
<path d="M11.4038 18.9733L11.402 18.9717C8.852 16.6593 6.83433 14.824 5.43983 13.1179C4.0588 11.4283 3.41757 10.0158 3.41757 8.5699C3.41757 6.21749 5.24098 4.40096 7.58651 4.40096C8.92265 4.40096 10.2254 5.02932 11.0702 6.01371L12.0007 7.09781L12.9311 6.01371C13.776 5.02932 15.0787 4.40096 16.4149 4.40096C18.7604 4.40096 20.5838 6.21749 20.5838 8.5699C20.5838 10.0158 19.9426 11.4283 18.5615 13.1179C17.167 14.824 15.1494 16.6593 12.5994 18.9717L12.5976 18.9733L12.0007 19.5167L11.4038 18.9733Z" stroke="#9371DB" stroke-width="2.45232"/>
</svg>
