<svg width="58" height="57" viewBox="0 0 58 57" fill="none" xmlns="http://www.w3.org/2000/svg">
<path d="M0.961661 28.9905H1.12449C1.12449 21.347 4.23747 14.4266 9.27092 9.41229C14.3092 4.40279 21.2583 1.30418 28.9449 1.30418C36.6268 1.30418 43.5807 4.40279 48.6142 9.41229C53.6476 14.4218 56.7606 21.3422 56.7606 28.9905C56.7606 36.6341 53.6476 43.5545 48.6142 48.5688C43.5807 53.5783 36.6268 56.6769 28.9449 56.6769C21.2631 56.6769 14.3092 53.5783 9.27571 48.5688C4.23747 43.5545 1.12449 36.6341 1.12449 28.9905H0.961661H0.798828C0.798828 44.4644 13.3992 57.0025 28.9449 57.0025C44.4859 57.0025 57.091 44.4596 57.091 28.9905C57.091 13.5166 44.4907 0.978516 28.9449 0.978516C13.3992 0.978516 0.798828 13.5166 0.798828 28.9905H0.961661Z" fill="#331E6D"/>
</svg>
